<?xml version="1.0" encoding="UTF-8" standalone="no"?>
<svg width="445px" height="233px" viewBox="0 0 445 233" version="1.1" xmlns="http://www.w3.org/2000/svg" xmlns:xlink="http://www.w3.org/1999/xlink">
    <!-- Generator: Sketch 3.7 (28169) - http://www.bohemiancoding.com/sketch -->
    <title>Narrowing Ideas</title>
    <desc>Created with Sketch.</desc>
    <defs></defs>
    <g id="Page-1" stroke="none" stroke-width="1" fill="none" fill-opacity="0.4" fill-rule="evenodd">
        <g id="Narrowing-Ideas" fill="#FFFFFF">
            <g id="Logo-Copy-3" transform="translate(68.000000, 48.000000)">
                <path d="M4.76,128 L4.76,109.84 L17.24,109.84 C33.64,109.84 41.8,99.12 41.64,88.64 C41.48,78.96 33.96,69.36 18.36,69.36 L0.2,69.36 L0.2,128 L4.76,128 Z M4.76,105.28 L4.76,73.92 L18.36,73.92 C30.76,73.92 36.92,81.2 37,88.72 C37.16,96.88 30.36,105.28 17.24,105.28 L4.76,105.28 Z M90.5800002,128 L66.1800002,68.56 L62.5000002,68.56 L36.9800002,128 L41.8600002,128 C42.9800002,125.2 44.6600002,121.68 45.9400002,118.72 C46.6600002,117.12 47.6200002,115.12 48.2600002,113.44 L79.5400002,113.44 L85.5400002,128 L90.5800002,128 Z M64.3400002,76.16 C68.9800002,87.68 73.1400002,97.36 77.7800002,108.88 L50.0200002,108.88 L64.3400002,76.16 Z M111.84,73.92 L132.8,73.92 L132.8,69.36 L86.2400004,69.36 L86.2400004,73.92 L107.2,73.92 L107.2,128 L111.84,128 L111.84,73.92 Z M169.24,73.92 L190.2,73.92 L190.2,69.36 L143.64,69.36 L143.64,73.92 L164.6,73.92 L164.6,128 L169.24,128 L169.24,73.92 Z M227.28,128 C244.64,128 253.2,113.36 253.2,98.72 C253.2,84 244.56,69.36 227.12,69.36 C209.76,69.36 201.2,84 201.2,98.64 C201.2,113.36 209.84,128 227.28,128 L227.28,128 Z M226.8,73.92 C241.28,73.92 248.4,86.24 248.4,98.56 C248.4,111.04 241.12,123.44 227.28,123.44 C212.8,123.44 205.76,111.12 205.76,98.88 C205.76,86.4 212.96,73.92 226.8,73.92 L226.8,73.92 Z M308.12,128 L308.12,69.36 L303.56,69.36 L303.56,119.92 L269,69.44 L264.36,69.44 L264.36,128 L269,128 L269,77.44 L303.64,128 L308.12,128 Z" id="PATTON"></path>
                <path d="M43.96,60 L43.96,1.36 L39.4,1.36 L39.4,51.92 L4.84,1.44 L0.2,1.44 L0.2,60 L4.84,60 L4.84,9.44 L39.48,60 L43.96,60 Z M104.76,60 L80.36,0.56 L76.68,0.56 L51.16,60 L56.04,60 C57.16,57.2 58.84,53.68 60.12,50.72 C60.84,49.12 61.8,47.12 62.44,45.44 L93.72,45.44 L99.72,60 L104.76,60 Z M78.52,8.16 C83.16,19.68 87.32,29.36 91.96,40.88 L64.2,40.88 L78.52,8.16 Z M123.62,5.92 L144.58,5.92 L144.58,1.36 L98.0199996,1.36 L98.0199996,5.92 L118.98,5.92 L118.98,60 L123.62,60 L123.62,5.92 Z M196.34,1.36 L191.78,1.36 L191.78,32.64 L157.06,32.64 L157.06,1.36 L152.42,1.36 L152.42,60 L157.06,60 L157.06,37.28 L191.78,37.28 L191.78,60 L196.34,60 L196.34,1.36 Z M257.14,60 L232.74,0.56 L229.06,0.56 L203.54,60 L208.42,60 C209.54,57.2 211.22,53.68 212.5,50.72 C213.22,49.12 214.18,47.12 214.82,45.44 L246.1,45.44 L252.1,60 L257.14,60 Z M230.9,8.16 C235.54,19.68 239.7,29.36 244.34,40.88 L216.58,40.88 L230.9,8.16 Z M308.26,60 L308.26,1.36 L303.7,1.36 L303.7,51.92 L269.14,1.44 L264.5,1.44 L264.5,60 L269.14,60 L269.14,9.44 L303.78,60 L308.26,60 Z" id="NATHAN"></path>
            </g>
        </g>
    </g>
</svg>